<?xml version="1.0" encoding="UTF-8" standalone="no"?>
<!DOCTYPE svg PUBLIC "-//W3C//DTD SVG 1.1//EN" "http://www.w3.org/Graphics/SVG/1.1/DTD/svg11.dtd">
<svg width="100%" height="100%" viewBox="0 0 24 24" version="1.1" xmlns="http://www.w3.org/2000/svg" xmlns:xlink="http://www.w3.org/1999/xlink" xml:space="preserve" xmlns:serif="http://www.serif.com/" style="fill-rule:evenodd;clip-rule:evenodd;stroke-linejoin:round;stroke-miterlimit:2;">
    <g>
        <path d="M6.074,20.56C5.807,20.551 5.59,20.329 5.59,20.06L5.59,20.055L5.44,5.395C5.44,5.39 5.44,5.385 5.44,5.38C5.439,5.356 5.438,5.332 5.438,5.309C5.438,4.37 6.19,3.588 7.127,3.55C7.131,3.55 16.706,3.5 16.706,3.5C17.663,3.519 18.44,4.312 18.44,5.27C18.44,5.28 18.44,5.291 18.44,5.301C18.44,5.306 18.44,5.31 18.44,5.315L18.58,19.975C18.582,20.152 18.489,20.317 18.338,20.408C18.183,20.496 17.994,20.496 17.84,20.407C17.837,20.406 17.835,20.404 17.832,20.403L12.132,17.243C11.975,17.155 11.783,17.16 11.629,17.253L6.35,20.477C6.266,20.523 6.174,20.551 6.079,20.559L6.074,20.56ZM11.854,16.01C11.942,16.011 12.029,16.031 12.109,16.068C12.118,16.073 16.818,18.677 16.818,18.677C16.973,18.764 17.163,18.761 17.316,18.67C17.469,18.579 17.562,18.413 17.56,18.235L17.44,5.285C17.44,4.961 17.269,4.711 17.115,4.592C16.976,4.486 16.827,4.453 16.704,4.461C16.713,4.46 7.125,4.55 7.125,4.55C7.007,4.55 6.861,4.591 6.73,4.703C6.591,4.82 6.44,5.055 6.44,5.38L6.44,5.385L6.56,18.285C6.562,18.465 6.66,18.63 6.818,18.718C6.976,18.805 7.168,18.8 7.322,18.706L11.593,16.081C11.673,16.037 11.762,16.012 11.854,16.01Z" style="fill-rule:nonzero;"/>
    </g>
</svg>
