<?xml version="1.0" encoding="UTF-8" standalone="no"?>
<!DOCTYPE svg PUBLIC "-//W3C//DTD SVG 1.1//EN" "http://www.w3.org/Graphics/SVG/1.1/DTD/svg11.dtd">
<svg width="100%" height="100%" viewBox="0 0 24 24" version="1.1" xmlns="http://www.w3.org/2000/svg" xmlns:xlink="http://www.w3.org/1999/xlink" xml:space="preserve" xmlns:serif="http://www.serif.com/" style="fill-rule:evenodd;clip-rule:evenodd;stroke-linejoin:round;stroke-miterlimit:2;">
    <g>
        <path d="M5.994,20.5C5.911,20.498 5.829,20.476 5.757,20.435L5.755,20.434C5.598,20.346 5.5,20.179 5.5,19.999L5.5,5.33C5.5,5.326 5.5,5.322 5.5,5.319C5.478,4.354 6.244,3.54 7.206,3.5C7.21,3.5 16.79,3.5 16.79,3.5C17.754,3.538 18.522,4.353 18.5,5.319C18.5,5.322 18.5,5.326 18.5,5.33L18.5,19.997C18.499,20.175 18.403,20.338 18.25,20.427C18.095,20.516 17.905,20.516 17.75,20.427L17.746,20.425L12.076,17.215C11.92,17.126 11.727,17.129 11.573,17.221L6.243,20.421C6.241,20.423 6.238,20.424 6.236,20.425C6.164,20.47 6.082,20.496 5.997,20.5L5.994,20.5Z" style="fill-rule:nonzero;"/>
    </g>
</svg>
