<?xml version="1.0" encoding="UTF-8" standalone="no"?>
<!DOCTYPE svg PUBLIC "-//W3C//DTD SVG 1.1//EN" "http://www.w3.org/Graphics/SVG/1.1/DTD/svg11.dtd">
<svg width="100%" height="100%" viewBox="0 0 24 24" version="1.1" xmlns="http://www.w3.org/2000/svg" xmlns:xlink="http://www.w3.org/1999/xlink" xml:space="preserve" xmlns:serif="http://www.serif.com/" style="fill-rule:evenodd;clip-rule:evenodd;stroke-linejoin:round;stroke-miterlimit:2;">
    <g>
        <path d="M14.671,18.039L12.358,20.355C12.263,20.449 12.136,20.501 12.003,20.5C12.001,20.5 11.999,20.5 11.997,20.5C11.864,20.501 11.737,20.449 11.642,20.355L3.875,12.578C2.052,10.735 2.052,7.726 3.874,5.883C5.712,4.052 8.73,4.052 10.567,5.884L11.646,6.964C11.842,7.159 12.158,7.159 12.354,6.964L13.433,5.884C15.27,4.052 18.288,4.052 20.126,5.883C21.589,7.362 21.877,9.594 20.99,11.37C20.217,10.789 19.257,10.445 18.216,10.445C15.664,10.445 13.591,12.518 13.591,15.07C13.591,16.2 13.997,17.236 14.671,18.039ZM20.541,12.097C21.424,12.788 21.991,13.863 21.991,15.07C21.991,17.154 20.3,18.845 18.216,18.845C17.028,18.845 15.966,18.295 15.274,17.435C14.753,16.788 14.441,15.965 14.441,15.07C14.441,12.987 16.133,11.295 18.216,11.295C19.093,11.295 19.9,11.595 20.541,12.097ZM20.702,15.07C20.702,14.808 20.489,14.595 20.227,14.595L16.205,14.595C15.943,14.595 15.73,14.808 15.73,15.07C15.73,15.332 15.943,15.545 16.205,15.545L20.227,15.545C20.489,15.545 20.702,15.332 20.702,15.07Z"/>
    </g>
</svg>
