<?xml version="1.0" encoding="UTF-8" standalone="no"?>
<!DOCTYPE svg PUBLIC "-//W3C//DTD SVG 1.1//EN" "http://www.w3.org/Graphics/SVG/1.1/DTD/svg11.dtd">
<svg width="100%" height="100%" viewBox="0 0 24 24" version="1.1" xmlns="http://www.w3.org/2000/svg" xmlns:xlink="http://www.w3.org/1999/xlink" xml:space="preserve" xmlns:serif="http://www.serif.com/" style="fill-rule:evenodd;clip-rule:evenodd;stroke-linejoin:round;stroke-miterlimit:2;">
    <g>
        <g>
            <path d="M14.671,18.039L12.358,20.355C12.263,20.449 12.136,20.501 12.003,20.5C12.001,20.5 11.999,20.5 11.997,20.5C11.864,20.501 11.737,20.449 11.642,20.355L3.875,12.578C2.052,10.735 2.052,7.726 3.874,5.883C5.712,4.052 8.73,4.052 10.567,5.884L11.646,6.964C11.842,7.159 12.158,7.159 12.354,6.964L13.433,5.884C15.27,4.052 18.288,4.052 20.126,5.883C21.589,7.362 21.877,9.594 20.99,11.37C20.723,11.169 20.433,10.997 20.126,10.857C20.794,9.467 20.557,7.736 19.414,6.587C19.411,6.584 19.407,6.58 19.403,6.577C17.939,5.194 15.621,5.194 14.157,6.577C14.153,6.58 14.149,6.584 14.145,6.587L12.355,8.388C12.261,8.482 12.133,8.536 12,8.536C11.867,8.536 11.739,8.482 11.645,8.388L9.854,6.587C9.157,5.888 8.207,5.496 7.22,5.5C6.233,5.496 5.283,5.888 4.586,6.587C3.144,8.036 3.144,10.414 4.586,11.863L11.646,18.933C11.74,19.027 11.867,19.08 12,19.08C12.133,19.08 12.26,19.027 12.354,18.933L14.102,17.183C14.26,17.49 14.451,17.777 14.671,18.039ZM20.541,12.097C21.424,12.788 21.991,13.863 21.991,15.07C21.991,17.154 20.3,18.845 18.216,18.845C17.028,18.845 15.966,18.295 15.274,17.435C15.057,17.166 14.877,16.866 14.74,16.544C14.548,16.091 14.441,15.593 14.441,15.07C14.441,12.987 16.133,11.295 18.216,11.295C18.73,11.295 19.219,11.398 19.665,11.584C19.981,11.715 20.275,11.888 20.541,12.097ZM17.741,14.595L16.205,14.595C15.943,14.595 15.73,14.808 15.73,15.07C15.73,15.332 15.943,15.545 16.205,15.545L17.741,15.545L17.741,17.081C17.741,17.343 17.954,17.556 18.216,17.556C18.478,17.556 18.691,17.343 18.691,17.081L18.691,15.545L20.227,15.545C20.489,15.545 20.702,15.332 20.702,15.07C20.702,14.808 20.489,14.595 20.227,14.595L18.691,14.595L18.691,13.059C18.691,12.797 18.478,12.584 18.216,12.584C17.954,12.584 17.741,12.797 17.741,13.059L17.741,14.595Z"/>
        </g>
    </g>
</svg>
